<svg width="35" height="24" viewBox="0 0 35 24" fill="none" xmlns="http://www.w3.org/2000/svg">
    <path d="M28.3648 13.0048C31.8848 13.0048 34.8672 10.0608 34.8672 6.50237C34.8672 2.94398 31.9234 0 28.3648 0C24.7935 0 21.8624 2.94398 21.8624 6.50237C21.8624 10.0864 24.7935 13.0048 28.3648 13.0048ZM0 20.032C0 22.6816 1.35683 24 4.0192 24H25.7664C28.0575 24 29.389 22.6688 29.389 20.032V14.6944C29.0561 14.7456 28.7105 14.7712 28.3648 14.7712C28.0064 14.7712 27.6738 14.7456 27.3279 14.7072V19.9424C27.3279 21.2608 26.6112 21.9392 25.3441 21.9392H4.05761C2.77761 21.9392 2.06078 21.2608 2.06078 19.9296V9.36958H20.608C20.3776 8.75516 20.224 8.1024 20.1728 7.43681H2.06078V4.21115C2.06078 2.94398 2.7392 2.30398 3.95519 2.30398H6.8224C7.66718 2.30398 8.17917 2.50876 8.832 3.07199L9.61284 3.71199C10.4448 4.40317 11.1232 4.6592 12.3904 4.6592H20.3264C20.48 3.9296 20.7488 3.22559 21.0944 2.59836H12.928C12.0576 2.59836 11.5328 2.38075 10.8928 1.84317L10.112 1.1904C9.26722 0.486398 8.61439 0.243199 7.34721 0.243199H3.5328C1.29277 0.243199 0 1.5232 0 4.10879L0 20.032ZM28.3648 10.7264C27.9168 10.7264 27.5327 10.4192 27.5327 9.94557V7.28321H25.0751C24.6528 7.28321 24.2944 6.92476 24.2944 6.50237C24.2944 6.07998 24.6528 5.72159 25.0751 5.72159H27.5327V3.07199C27.5327 2.58559 27.9168 2.27839 28.3648 2.27839C28.8127 2.27839 29.1968 2.58559 29.1968 3.07199V5.72159H31.6544C32.0767 5.72159 32.4353 6.07998 32.4353 6.50237C32.4353 6.92476 32.0767 7.28321 31.6544 7.28321H29.1968V9.94557C29.1968 10.4192 28.8127 10.7264 28.3648 10.7264Z" fill="black"/>
</svg>
