<svg width="24" height="24" viewBox="0 0 24 24" fill="none" xmlns="http://www.w3.org/2000/svg">
    <path d="M14.8536 6.84956V4.29356C14.8536 3.71756 15.4896 3.40796 15.9216 3.72956L15.996 3.79436L21.3924 9.09836C21.6444 9.34676 21.6672 9.74516 21.4608 10.02L21.3924 10.098L15.996 15.4056C15.5904 15.804 14.9316 15.5484 14.8596 15.0048L14.8536 14.9064V12.3912L14.544 12.4188C12.384 12.6504 10.3128 13.6476 8.31958 15.4272C7.85158 15.8448 7.12918 15.4512 7.20598 14.82C7.80358 9.91196 10.308 7.20596 14.5836 6.86756L14.8536 6.84956ZM6.59998 4.79996C5.80433 4.79996 5.04126 5.11603 4.47866 5.67864C3.91605 6.24125 3.59998 7.00431 3.59998 7.79996V17.4C3.59998 18.1956 3.91605 18.9587 4.47866 19.5213C5.04126 20.0839 5.80433 20.4 6.59998 20.4H16.2C16.9956 20.4 17.7587 20.0839 18.3213 19.5213C18.8839 18.9587 19.2 18.1956 19.2 17.4V16.2C19.2 16.0408 19.1368 15.8882 19.0242 15.7757C18.9117 15.6632 18.7591 15.6 18.6 15.6C18.4408 15.6 18.2882 15.6632 18.1757 15.7757C18.0632 15.8882 18 16.0408 18 16.2V17.4C18 17.8774 17.8103 18.3352 17.4728 18.6728C17.1352 19.0103 16.6774 19.2 16.2 19.2H6.59998C6.12259 19.2 5.66475 19.0103 5.32718 18.6728C4.98962 18.3352 4.79998 17.8774 4.79998 17.4V7.79996C4.79998 7.32257 4.98962 6.86474 5.32718 6.52717C5.66475 6.1896 6.12259 5.99996 6.59998 5.99996H10.2C10.3591 5.99996 10.5117 5.93675 10.6242 5.82423C10.7368 5.7117 10.8 5.55909 10.8 5.39996C10.8 5.24083 10.7368 5.08822 10.6242 4.9757C10.5117 4.86318 10.3591 4.79996 10.2 4.79996H6.59998Z" fill="black"/>
</svg>
