<svg width="24" height="23" viewBox="0 0 24 23" fill="none" xmlns="http://www.w3.org/2000/svg">
    <path d="M21.5984 7.18752C21.5984 6.51895 21.3087 5.87777 20.7929 5.40502C20.2772 4.93227 19.5777 4.66669 18.8484 4.66669H4.3484C3.61906 4.66669 2.91958 4.93227 2.40386 5.40502C1.88813 5.87777 1.5984 6.51895 1.5984 7.18752V12.2292C2.0984 12.2292 2.55078 12.2292 3.05078 12.2292L3.0984 7.18752C3.0984 6.55502 3.6584 6.04169 4.3484 6.04169H18.8484C19.5384 6.04169 20.0984 6.55502 20.0984 7.18752V16.8125C20.0984 17.445 19.5384 17.9584 18.8484 17.9584H12C12 18.4167 11.9776 18.875 12 19.3334H18.8484C19.2095 19.3334 19.5671 19.2681 19.9008 19.1415C20.2344 19.0148 20.5376 18.8291 20.7929 18.595C21.0483 18.3609 21.2509 18.083 21.3891 17.7772C21.5273 17.4714 21.5984 17.1436 21.5984 16.8125V7.18752ZM0.598402 17.0417C0.598402 15.7046 1.17786 14.4222 2.20931 13.4767C3.24076 12.5312 4.63971 12 6.0984 12C7.55709 12 8.95604 12.5312 9.98749 13.4767C11.0189 14.4222 11.5984 15.7046 11.5984 17.0417C11.5984 18.3788 11.0189 19.6612 9.98749 20.6067C8.95604 21.5522 7.55709 22.0834 6.0984 22.0834C4.63971 22.0834 3.24076 21.5522 2.20931 20.6067C1.17786 19.6612 0.598402 18.3788 0.598402 17.0417ZM5.5984 17.5L5.5974 19.7944C5.5974 19.916 5.65008 20.0326 5.74385 20.1185C5.83762 20.2045 5.96479 20.2528 6.0974 20.2528C6.23001 20.2528 6.35719 20.2045 6.45096 20.1185C6.54472 20.0326 6.5974 19.916 6.5974 19.7944V17.5H9.1024C9.23501 17.5 9.36219 17.4517 9.45595 17.3658C9.54972 17.2798 9.6024 17.1632 9.6024 17.0417C9.6024 16.9201 9.54972 16.8035 9.45595 16.7176C9.36219 16.6316 9.23501 16.5834 9.1024 16.5834H6.5984V14.2917C6.5984 14.1701 6.54572 14.0535 6.45195 13.9676C6.35819 13.8816 6.23101 13.8334 6.0984 13.8334C5.96579 13.8334 5.83862 13.8816 5.74485 13.9676C5.65108 14.0535 5.5984 14.1701 5.5984 14.2917V16.5834H3.0954C2.96279 16.5834 2.83562 16.6316 2.74185 16.7176C2.64808 16.8035 2.5954 16.9201 2.5954 17.0417C2.5954 17.1632 2.64808 17.2798 2.74185 17.3658C2.83562 17.4517 2.96279 17.5 3.0954 17.5H5.5984Z" fill="black"/>
    <path d="M4.80005 2.83331H18.8" stroke="black" stroke-linecap="round"/>
    <path d="M6.30005 0.5H17.3" stroke="black" stroke-linecap="round"/>
</svg>
