<svg width="24" height="24" viewBox="0 0 24 24" fill="none" xmlns="http://www.w3.org/2000/svg">
<path d="M20.3105 4.5H5.85938C4.26562 4.5 2.95312 5.78953 2.95312 7.37484V18.8752C2.95312 20.4605 4.26562 21.75 5.85938 21.75H20.2969C21.8906 21.75 23.2031 20.5228 23.2031 18.9375V7.37484C23.2031 5.78953 21.9056 4.5 20.3105 4.5ZM16.6941 7.37531C17.12 7.3779 17.5356 7.50657 17.8884 7.74507C18.2413 7.98357 18.5156 8.32123 18.6768 8.71546C18.838 9.10968 18.8788 9.54281 18.7941 9.96021C18.7095 10.3776 18.5031 10.7606 18.201 11.0608C17.8989 11.3611 17.5147 11.5651 17.0968 11.6473C16.6789 11.7294 16.246 11.686 15.8528 11.5224C15.4595 11.3588 15.1235 11.0824 14.8872 10.7281C14.6508 10.3738 14.5247 9.95747 14.5247 9.53156C14.5269 8.95806 14.7566 8.40887 15.1633 8.00453C15.57 7.60018 16.1206 7.37372 16.6941 7.37484V7.37531ZM5.84016 20.3128C5.04328 20.3128 4.44047 19.6683 4.44047 18.8756V15.8367L8.68078 12.0497C9.09532 11.685 9.63269 11.4911 10.1845 11.5071C10.7364 11.523 11.2617 11.7475 11.6545 12.1355L14.5908 15.0469L9.29391 20.3123L5.84016 20.3128ZM21.7031 18.8752C21.7031 19.0641 21.6658 19.2511 21.5934 19.4256C21.521 19.6001 21.4149 19.7586 21.2812 19.8921C21.1475 20.0256 20.9888 20.1314 20.8142 20.2035C20.6396 20.2756 20.4525 20.3126 20.2636 20.3123H11.3438L16.8319 14.8594C17.2213 14.5308 17.7141 14.35 18.2236 14.3486C18.7332 14.3473 19.2269 14.5254 19.6181 14.8519L21.7031 16.6214V18.8752Z" fill="black"/>
<path d="M18 1.5H3C2.20435 1.5 1.44129 1.81607 0.87868 2.37868C0.316071 2.94129 0 3.70435 0 4.5L0 16.5C0.00054868 17.1651 0.221737 17.8113 0.628907 18.3372C1.03608 18.8631 1.60622 19.2391 2.25 19.4062V7.125C2.25 6.22989 2.60558 5.37145 3.23851 4.73851C3.87145 4.10558 4.72989 3.75 5.625 3.75H20.9062C20.7391 3.10622 20.3631 2.53608 19.8372 2.12891C19.3113 1.72174 18.6651 1.50055 18 1.5Z" fill="black"/>
</svg>
