<svg width="10" height="10" viewBox="0 0 10 10" fill="none" xmlns="http://www.w3.org/2000/svg">
    <g clip-path="url(#clip0_827_3)">
        <path d="M9.81717 8.93558L7.88169 6.99929C9.3299 5.06397 8.93502 2.32105 6.9997 0.872833C5.06438 -0.575384 2.32146 -0.180502 0.873245 1.75482C-0.574971 3.69014 -0.18009 6.43306 1.75523 7.88128C3.30984 9.04461 5.44507 9.04461 6.9997 7.88128L8.936 9.81757C9.17932 10.0609 9.57384 10.0609 9.81715 9.81757C10.0605 9.57424 10.0605 9.17973 9.81715 8.93642L9.81717 8.93558ZM4.3936 7.50755C2.67358 7.50755 1.27924 6.11321 1.27924 4.39319C1.27924 2.67317 2.67358 1.27883 4.3936 1.27883C6.11362 1.27883 7.50796 2.67317 7.50796 4.39319C7.50613 6.11244 6.11287 7.50572 4.3936 7.50755Z" fill="#374957"/>
    </g>
    <defs>
        <clipPath id="clip0_827_3">
            <rect width="10" height="10" fill="white"/>
        </clipPath>
    </defs>
</svg>
