<svg width="16" height="16" viewBox="0 0 16 16" fill="none" xmlns="http://www.w3.org/2000/svg">
    <path d="M11.182 0.00800701C11.148 -0.029993 9.92305 0.023007 8.85705 1.18001C7.79105 2.33601 7.95505 3.66201 7.97905 3.69601C8.00305 3.73001 9.49905 3.78301 10.454 2.43801C11.409 1.09301 11.216 0.047007 11.182 0.00800701V0.00800701ZM14.496 11.741C14.448 11.645 12.171 10.507 12.383 8.31901C12.595 6.13001 14.058 5.53001 14.081 5.46501C14.104 5.40001 13.484 4.67501 12.827 4.30801C12.3447 4.04926 11.8108 3.90101 11.264 3.87401C11.156 3.87101 10.781 3.77901 10.01 3.99001C9.50205 4.12901 8.35705 4.57901 8.04205 4.59701C7.72605 4.61501 6.78605 4.07501 5.77505 3.93201C5.12805 3.80701 4.44205 4.06301 3.95105 4.26001C3.46105 4.45601 2.52905 5.01401 1.87705 6.49701C1.22505 7.97901 1.56605 10.327 1.81005 11.057C2.05405 11.786 2.43505 12.981 3.08305 13.853C3.65905 14.837 4.42305 15.52 4.74205 15.752C5.06105 15.984 5.96105 16.138 6.58505 15.819C7.08705 15.511 7.99305 15.334 8.35105 15.347C8.70805 15.36 9.41205 15.501 10.133 15.886C10.704 16.083 11.244 16.001 11.785 15.781C12.326 15.56 13.109 14.722 14.023 13.023C14.37 12.233 14.528 11.806 14.496 11.741V11.741Z" fill="black"/>
    <path d="M11.182 0.00800701C11.148 -0.029993 9.92305 0.023007 8.85705 1.18001C7.79105 2.33601 7.95505 3.66201 7.97905 3.69601C8.00305 3.73001 9.49905 3.78301 10.454 2.43801C11.409 1.09301 11.216 0.047007 11.182 0.00800701V0.00800701ZM14.496 11.741C14.448 11.645 12.171 10.507 12.383 8.31901C12.595 6.13001 14.058 5.53001 14.081 5.46501C14.104 5.40001 13.484 4.67501 12.827 4.30801C12.3447 4.04926 11.8108 3.90101 11.264 3.87401C11.156 3.87101 10.781 3.77901 10.01 3.99001C9.50205 4.12901 8.35705 4.57901 8.04205 4.59701C7.72605 4.61501 6.78605 4.07501 5.77505 3.93201C5.12805 3.80701 4.44205 4.06301 3.95105 4.26001C3.46105 4.45601 2.52905 5.01401 1.87705 6.49701C1.22505 7.97901 1.56605 10.327 1.81005 11.057C2.05405 11.786 2.43505 12.981 3.08305 13.853C3.65905 14.837 4.42305 15.52 4.74205 15.752C5.06105 15.984 5.96105 16.138 6.58505 15.819C7.08705 15.511 7.99305 15.334 8.35105 15.347C8.70805 15.36 9.41205 15.501 10.133 15.886C10.704 16.083 11.244 16.001 11.785 15.781C12.326 15.56 13.109 14.722 14.023 13.023C14.37 12.233 14.528 11.806 14.496 11.741V11.741Z" fill="black"/>
</svg>
