<svg width="24" height="29" viewBox="0 0 24 29" fill="none" xmlns="http://www.w3.org/2000/svg">
    <path d="M20.9241 25.3039L21.7975 6.79746H23.0633C23.5824 6.79746 24 6.36707 24 5.8481C24 5.32913 23.5824 4.8861 23.0633 4.8861H17.5317V2.98732C17.5317 1.17722 16.3038 0 14.3545 0H9.62027C7.67089 0 6.4557 1.17722 6.4557 2.98732V4.8861H0.949363C0.443032 4.8861 0 5.32913 0 5.8481C0 6.36707 0.443032 6.79746 0.949363 6.79746H2.21522L3.08859 25.3165C3.17722 27.1393 4.37977 28.2912 6.20256 28.2912H17.8102C19.6203 28.2912 20.8355 27.1266 20.9241 25.3039ZM8.48102 3.11392C8.48102 2.39242 9.01268 1.88609 9.7722 1.88609H14.2152C14.9874 1.88609 15.519 2.39242 15.519 3.11392V4.8861H8.48102V3.11392ZM6.39245 26.3925C5.65826 26.3925 5.11391 25.8355 5.07594 25.1013L4.18988 6.79746H19.7722L18.9368 25.1013C18.8988 25.8482 18.3671 26.3925 17.6203 26.3925H6.39245ZM15.7595 24.1646C16.1772 24.1646 16.4937 23.8229 16.5064 23.3418L16.8861 9.97468C16.8988 9.49368 16.5697 9.13927 16.1393 9.13927C15.7469 9.13927 15.4178 9.50637 15.4051 9.96204L15.0253 23.3418C15.0127 23.7975 15.3291 24.1646 15.7595 24.1646ZM8.25321 24.1646C8.6836 24.1646 9.00004 23.7975 8.98735 23.3418L8.60761 9.96204C8.59498 9.50637 8.25321 9.13927 7.86078 9.13927C7.43039 9.13927 7.11395 9.49368 7.12659 9.97468L7.51902 23.3418C7.53166 23.8229 7.83545 24.1646 8.25321 24.1646ZM12.7722 23.3418V9.96204C12.7722 9.50637 12.4304 9.13927 12.0127 9.13927C11.5949 9.13927 11.2405 9.50637 11.2405 9.96204V23.3418C11.2405 23.7975 11.5949 24.1646 12.0127 24.1646C12.4178 24.1646 12.7722 23.7975 12.7722 23.3418Z" fill="black"/>
</svg>
